<svg width="375" height="213" viewBox="0 0 375 213" fill="none" xmlns="http://www.w3.org/2000/svg">
<g clip-path="url(#clip0_1623_17278)">
<path d="M0 0H375V193C375 204.046 366.046 213 355 213H20C8.95431 213 0 204.046 0 193V0Z" fill="#4757EA"/>
<path d="M96.4918 49.6512C99.38 53.3973 99.7739 58.7283 97.6734 65.6442C95.5729 72.5601 92.0282 78.7556 87.0395 84.2307L71.1872 101.629L86.9411 176.839C87.2693 178.208 86.8754 179.397 85.7595 180.405L73.1565 190.779C72.697 191.211 72.0734 191.427 71.2857 191.427C71.0231 191.427 70.7934 191.391 70.5965 191.319C69.6119 191.103 68.9226 190.527 68.5288 189.59L41.0581 134.695L15.5566 162.683L20.775 183.647C21.1032 184.872 20.8407 185.988 19.9873 186.997L10.535 197.371C9.94426 198.019 9.18939 198.343 8.27042 198.343H8.07349C7.08888 198.199 6.30119 197.731 5.71042 196.939L-12.8988 169.707L-37.7111 149.284C-38.4331 148.779 -38.8598 147.951 -38.991 146.798C-39.0567 145.862 -38.7613 144.961 -38.1049 144.097L-28.6526 133.615C-28.0618 132.966 -27.307 132.642 -26.388 132.642C-25.9941 132.642 -25.7316 132.678 -25.6003 132.75L-6.49879 138.477L19.0027 110.49L-31.0157 80.3405C-31.9346 79.7642 -32.4926 78.8997 -32.6895 77.7471C-32.8208 76.5944 -32.5254 75.6219 -31.8034 74.8294L-19.2003 60.9976C-18.2813 60.0611 -17.2967 59.7729 -16.2465 60.1331L49.2304 77.3148L64.9842 60.025C69.9729 54.5499 75.618 50.6597 81.9195 48.3544C88.2211 46.0491 93.0785 46.4814 96.4918 49.6512Z" fill="#5F79F5" fill-opacity="0.6"/>
<ellipse cx="375" cy="30.2885" rx="69" ry="67.4174" fill="#7E9CFB" fill-opacity="0.2"/>
<ellipse cx="375.199" cy="30.4842" rx="35.1017" ry="34.2967" fill="#A3C0FE" fill-opacity="0.3"/>
</g>
<defs>
<clipPath id="clip0_1623_17278">
<path d="M0 0H375V193C375 204.046 366.046 213 355 213H20C8.95431 213 0 204.046 0 193V0Z" fill="white"/>
</clipPath>
</defs>
</svg>
