<svg width="32" height="32" viewBox="0 0 32 32" fill="none" xmlns="http://www.w3.org/2000/svg">
<path d="M14.2665 6.26595C18.2665 2.26595 24.1332 1.46595 27.3332 4.66595C30.5332 7.86595 29.7332 13.7326 25.7332 17.7326C24.152 19.3332 22.1731 20.4837 19.9999 21.0659C17.1999 21.7326 14.5332 21.1993 12.6665 19.3326C10.7999 17.4659 10.2665 14.7993 10.9332 11.9993C11.5154 9.82605 12.6659 7.84711 14.2665 6.26595Z" stroke="black" stroke-width="2" stroke-linecap="round" stroke-linejoin="round"/>
<path d="M10.9327 12L7.99935 24M7.99935 24L19.9993 21.0667M7.99935 24L2.66602 29.3333" stroke="black" stroke-width="2" stroke-linecap="round" stroke-linejoin="round"/>
<path d="M26.6667 29.3333C28.1394 29.3333 29.3333 28.1394 29.3333 26.6667C29.3333 25.1939 28.1394 24 26.6667 24C25.1939 24 24 25.1939 24 26.6667C24 28.1394 25.1939 29.3333 26.6667 29.3333Z" stroke="black" stroke-width="2" stroke-linecap="round" stroke-linejoin="round"/>
</svg>
