<svg width="32" height="32" viewBox="0 0 32 32" fill="none" xmlns="http://www.w3.org/2000/svg">
<path d="M16 3.99935V2.66602" stroke="#1A1F4C" stroke-width="2" stroke-linecap="round" stroke-linejoin="round"/>
<path d="M6.66602 13.3326C7.04001 11.1279 8.1824 9.12678 9.89076 7.68381C11.5991 6.24084 13.7631 5.44922 15.9993 5.44922C18.2356 5.44922 20.3996 6.24084 22.1079 7.68381C23.8163 9.12678 24.9587 11.1279 25.3327 13.3326" stroke="#1A1F4C" stroke-width="2" stroke-linecap="round" stroke-linejoin="round"/>
<path d="M5.33398 13.334H26.6673" stroke="#1A1F4C" stroke-width="2" stroke-linecap="round" stroke-linejoin="round"/>
<path d="M2.66602 18.666H18.666C19.3733 18.666 20.0515 18.947 20.5516 19.4471C21.0517 19.9472 21.3327 20.6254 21.3327 21.3327C21.3327 22.0399 21.0517 22.7182 20.5516 23.2183C20.0515 23.7184 19.3733 23.9993 18.666 23.9993H15.9993" stroke="#1A1F4C" stroke-width="2" stroke-linecap="round" stroke-linejoin="round"/>
<path d="M20.5327 23.2003L24.7994 19.467C25.3121 18.9719 26.0005 18.7008 26.7132 18.7133C27.4258 18.7258 28.1043 19.0209 28.5994 19.5336C29.0944 20.0464 29.3655 20.7348 29.353 21.4475C29.3405 22.1601 29.0454 22.8386 28.5327 23.3336L23.7327 27.7336C22.7993 28.8003 21.466 29.3336 19.9993 29.3336H14.666C13.1993 29.3336 11.866 28.8003 10.9327 27.7336L6.66602 24.0003" stroke="#1A1F4C" stroke-width="2" stroke-linecap="round" stroke-linejoin="round"/>
<path d="M6.66602 18.666V27.9993H2.66602" stroke="#1A1F4C" stroke-width="2" stroke-linecap="round" stroke-linejoin="round"/>
</svg>
