<svg width="33" height="32" viewBox="0 0 33 32" fill="none" xmlns="http://www.w3.org/2000/svg">
<path d="M16.5007 18.6673C17.9734 18.6673 19.1673 17.4734 19.1673 16.0007C19.1673 14.5279 17.9734 13.334 16.5007 13.334C15.0279 13.334 13.834 14.5279 13.834 16.0007C13.834 17.4734 15.0279 18.6673 16.5007 18.6673Z" stroke="#1A1F4C" stroke-width="2" stroke-linecap="round" stroke-linejoin="round"/>
<path d="M16.5 2.66602V7.99935" stroke="#1A1F4C" stroke-width="2" stroke-linecap="round" stroke-linejoin="round"/>
<path d="M9.56706 20L4.90039 22.6667" stroke="#1A1F4C" stroke-width="2" stroke-linecap="round" stroke-linejoin="round"/>
<path d="M28.1003 9.33398L23.4336 12.0007" stroke="#1A1F4C" stroke-width="2" stroke-linecap="round" stroke-linejoin="round"/>
<path d="M9.56706 12.0007L4.90039 9.33398" stroke="#1A1F4C" stroke-width="2" stroke-linecap="round" stroke-linejoin="round"/>
<path d="M28.1003 22.6667L23.4336 20" stroke="#1A1F4C" stroke-width="2" stroke-linecap="round" stroke-linejoin="round"/>
<path d="M12.5 29.3327L16.5 18.666L20.5 29.3327" stroke="#1A1F4C" stroke-width="2" stroke-linecap="round" stroke-linejoin="round"/>
<path d="M11.166 29.334H21.8327" stroke="#1A1F4C" stroke-width="2" stroke-linecap="round" stroke-linejoin="round"/>
<path d="M24.5 24.9326C26.3114 23.3124 27.5882 21.1803 28.1615 18.8186C28.7347 16.4569 28.5773 13.9767 27.7101 11.7064C26.8429 9.4361 25.3068 7.48259 23.3051 6.1044C21.3033 4.7262 18.9303 3.98828 16.5 3.98828C14.0697 3.98828 11.6967 4.7262 9.69495 6.1044C7.69321 7.48259 6.15712 9.4361 5.28993 11.7064C4.42275 13.9767 4.26535 16.4569 4.83856 18.8186C5.41176 21.1803 6.68856 23.3124 8.5 24.9326" stroke="#1A1F4C" stroke-width="2" stroke-linecap="round" stroke-linejoin="round"/>
</svg>
