<svg width="33" height="32" viewBox="0 0 33 32" fill="none" xmlns="http://www.w3.org/2000/svg">
<path d="M16.5 20C18.7091 20 20.5 18.2091 20.5 16C20.5 13.7909 18.7091 12 16.5 12C14.2909 12 12.5 13.7909 12.5 16C12.5 18.2091 14.2909 20 16.5 20Z" stroke="black" stroke-width="2" stroke-linecap="round" stroke-linejoin="round"/>
<path d="M16.5 22C16.5 23.1867 16.1481 24.3467 15.4888 25.3334C14.8295 26.3201 13.8925 27.0892 12.7961 27.5433C11.6997 27.9974 10.4933 28.1162 9.32946 27.8847C8.16557 27.6532 7.09648 27.0818 6.25736 26.2426C5.41825 25.4035 4.8468 24.3344 4.61529 23.1705C4.38378 22.0067 4.5026 20.8003 4.95673 19.7039C5.41085 18.6075 6.17989 17.6705 7.16658 17.0112C8.15328 16.3519 9.31331 16 10.5 16C9.31331 16 8.15328 15.6481 7.16658 14.9888C6.17989 14.3295 5.41085 13.3925 4.95673 12.2961C4.5026 11.1997 4.38378 9.99335 4.61529 8.82946C4.8468 7.66557 5.41825 6.59648 6.25736 5.75736C7.09648 4.91825 8.16557 4.3468 9.32946 4.11529C10.4933 3.88378 11.6997 4.0026 12.7961 4.45673C13.8925 4.91085 14.8295 5.67989 15.4888 6.66658C16.1481 7.65328 16.5 8.81331 16.5 10C16.5 8.81331 16.8519 7.65328 17.5112 6.66658C18.1705 5.67989 19.1075 4.91085 20.2039 4.45673C21.3003 4.0026 22.5067 3.88378 23.6705 4.11529C24.8344 4.3468 25.9035 4.91825 26.7426 5.75736C27.5818 6.59648 28.1532 7.66557 28.3847 8.82946C28.6162 9.99335 28.4974 11.1997 28.0433 12.2961C27.5892 13.3925 26.8201 14.3295 25.8334 14.9888C24.8467 15.6481 23.6867 16 22.5 16C23.6867 16 24.8467 16.3519 25.8334 17.0112C26.8201 17.6705 27.5892 18.6075 28.0433 19.7039C28.4974 20.8003 28.6162 22.0067 28.3847 23.1705C28.1532 24.3344 27.5818 25.4035 26.7426 26.2426C25.9035 27.0818 24.8344 27.6532 23.6705 27.8847C22.5067 28.1162 21.3003 27.9974 20.2039 27.5433C19.1075 27.0892 18.1705 26.3201 17.5112 25.3334C16.8519 24.3467 16.5 23.1867 16.5 22Z" stroke="black" stroke-width="2" stroke-linecap="round" stroke-linejoin="round"/>
<path d="M16.5 10V12" stroke="black" stroke-width="2" stroke-linecap="round" stroke-linejoin="round"/>
<path d="M10.5 16H12.5" stroke="black" stroke-width="2" stroke-linecap="round" stroke-linejoin="round"/>
<path d="M22.5 16H20.5" stroke="black" stroke-width="2" stroke-linecap="round" stroke-linejoin="round"/>
<path d="M16.5 22V20" stroke="black" stroke-width="2" stroke-linecap="round" stroke-linejoin="round"/>
<path d="M11.166 10.666L13.6727 13.1727" stroke="black" stroke-width="2" stroke-linecap="round" stroke-linejoin="round"/>
<path d="M19.3262 13.1727L21.8328 10.666" stroke="black" stroke-width="2" stroke-linecap="round" stroke-linejoin="round"/>
<path d="M11.166 21.3328L13.6727 18.8262" stroke="black" stroke-width="2" stroke-linecap="round" stroke-linejoin="round"/>
<path d="M19.3262 18.8262L21.8328 21.3328" stroke="black" stroke-width="2" stroke-linecap="round" stroke-linejoin="round"/>
</svg>
