<svg width="32" height="32" viewBox="0 0 32 32" fill="none" xmlns="http://www.w3.org/2000/svg">
<path d="M21.334 13.334H24.0007" stroke="#3440CE" stroke-width="2" stroke-linecap="round" stroke-linejoin="round"/>
<path d="M21.334 18.666H24.0007" stroke="#3440CE" stroke-width="2" stroke-linecap="round" stroke-linejoin="round"/>
<path d="M8.22656 20.0007C8.50142 19.2194 9.01203 18.5427 9.68792 18.064C10.3638 17.5852 11.1716 17.3281 11.9999 17.3281C12.8282 17.3281 13.636 17.5852 14.3119 18.064C14.9878 18.5427 15.4984 19.2194 15.7732 20.0007" stroke="#3440CE" stroke-width="2" stroke-linecap="round" stroke-linejoin="round"/>
<path d="M12.0007 17.3333C13.4734 17.3333 14.6673 16.1394 14.6673 14.6667C14.6673 13.1939 13.4734 12 12.0007 12C10.5279 12 9.33398 13.1939 9.33398 14.6667C9.33398 16.1394 10.5279 17.3333 12.0007 17.3333Z" stroke="#3440CE" stroke-width="2" stroke-linecap="round" stroke-linejoin="round"/>
<path d="M26.666 6.66602H5.33268C3.85992 6.66602 2.66602 7.85992 2.66602 9.33268V22.666C2.66602 24.1388 3.85992 25.3327 5.33268 25.3327H26.666C28.1388 25.3327 29.3327 24.1388 29.3327 22.666V9.33268C29.3327 7.85992 28.1388 6.66602 26.666 6.66602Z" stroke="#3440CE" stroke-width="2" stroke-linecap="round" stroke-linejoin="round"/>
</svg>
