<svg width="33" height="32" viewBox="0 0 33 32" fill="none" xmlns="http://www.w3.org/2000/svg">
<path d="M4.5 20C7.81067 20 10.2933 16 10.2933 16C10.2933 16 12.776 20 16.0867 20C19.3973 20 22.7067 16 22.7067 16C22.7067 16 26.0173 20 28.5 20M4.5 26.6667C7.81067 26.6667 10.2933 22.6667 10.2933 22.6667C10.2933 22.6667 12.776 26.6667 16.0867 26.6667C19.3973 26.6667 22.7067 22.6667 22.7067 22.6667C22.7067 22.6667 26.0173 26.6667 28.5 26.6667M7.16667 14L12.5 10.6667L10.9173 8.688C10.7764 8.5122 10.6722 8.30984 10.611 8.09295C10.5499 7.87607 10.533 7.6491 10.5613 7.42555C10.5897 7.202 10.6628 6.98644 10.7761 6.7917C10.8895 6.59696 11.0409 6.42702 11.2213 6.292C11.5662 6.03288 11.9974 5.91632 12.4259 5.96646C12.8543 6.01659 13.247 6.22959 13.5227 6.56133L19.1667 13.3333M22.5 10.6667C23.3841 10.6667 24.2319 10.3155 24.857 9.69036C25.4821 9.06523 25.8333 8.21739 25.8333 7.33333C25.8333 6.44928 25.4821 5.60143 24.857 4.97631C24.2319 4.35119 23.3841 4 22.5 4C21.6159 4 20.7681 4.35119 20.143 4.97631C19.5179 5.60143 19.1667 6.44928 19.1667 7.33333C19.1667 8.21739 19.5179 9.06523 20.143 9.69036C20.7681 10.3155 21.6159 10.6667 22.5 10.6667Z" stroke="#1A1F4C" stroke-width="2" stroke-linecap="round" stroke-linejoin="round"/>
</svg>
