<svg width="33" height="32" viewBox="0 0 33 32" fill="none" xmlns="http://www.w3.org/2000/svg">
<path d="M20.5 30H17.5C16.9696 30 16.4609 29.7893 16.0858 29.4142C15.7107 29.0391 15.5 28.5304 15.5 28V23H17.5V28H20.5V23H22.5V19C22.5 18.7348 22.3946 18.4804 22.2071 18.2929C22.0196 18.1054 21.7652 18 21.5 18H12.78L10.78 12H4.5C4.23478 12 3.98043 12.1054 3.79289 12.2929C3.60536 12.4804 3.5 12.7348 3.5 13V19H5.5V28H9.5V21H11.5V28C11.5 28.5304 11.2893 29.0391 10.9142 29.4142C10.5391 29.7893 10.0304 30 9.5 30H5.5C4.96957 30 4.46086 29.7893 4.08579 29.4142C3.71071 29.0391 3.5 28.5304 3.5 28V21C2.96957 21 2.46086 20.7893 2.08579 20.4142C1.71071 20.0391 1.5 19.5304 1.5 19V13C1.50079 12.2046 1.81712 11.442 2.37956 10.8796C2.94199 10.3171 3.70459 10.0008 4.5 10H10.78C11.1996 10 11.6086 10.1321 11.9491 10.3774C12.2895 10.6227 12.5442 10.9689 12.677 11.367L14.22 16H21.5C22.2954 16.0008 23.058 16.3171 23.6204 16.8796C24.1829 17.442 24.4992 18.2046 24.5 19V23C24.5 23.5304 24.2893 24.0391 23.9142 24.4142C23.5391 24.7893 23.0304 25 22.5 25V28C22.5 28.5304 22.2893 29.0391 21.9142 29.4142C21.5391 29.7893 21.0304 30 20.5 30ZM28.5 30H26.5V19H29.5V13C29.5 12.7348 29.3946 12.4804 29.2071 12.2929C29.0196 12.1054 28.7652 12 28.5 12H24.5V10H28.5C29.2954 10.0008 30.058 10.3171 30.6204 10.8796C31.1829 11.442 31.4992 12.2046 31.5 13V19C31.5 19.5304 31.2893 20.0391 30.9142 20.4142C30.5391 20.7893 30.0304 21 29.5 21H28.5V30ZM7.5 9C6.70887 9 5.93552 8.76541 5.27772 8.32588C4.61992 7.88635 4.10723 7.26164 3.80448 6.53074C3.50173 5.79983 3.42252 4.99556 3.57686 4.21964C3.7312 3.44372 4.11216 2.73098 4.67157 2.17157C5.23098 1.61216 5.94371 1.2312 6.71964 1.07686C7.49556 0.92252 8.29983 1.00173 9.03073 1.30448C9.76164 1.60723 10.3864 2.11992 10.8259 2.77772C11.2654 3.43552 11.5 4.20888 11.5 5C11.4987 6.06046 11.0768 7.07711 10.327 7.82697C9.57711 8.57683 8.56046 8.99868 7.5 9ZM7.5 3C7.10444 3 6.71776 3.1173 6.38886 3.33706C6.05996 3.55683 5.80362 3.86918 5.65224 4.23463C5.50087 4.60009 5.46126 5.00222 5.53843 5.39018C5.6156 5.77814 5.80608 6.13451 6.08579 6.41422C6.36549 6.69392 6.72186 6.8844 7.10982 6.96157C7.49778 7.03874 7.89991 6.99914 8.26537 6.84776C8.63082 6.69639 8.94318 6.44004 9.16294 6.11114C9.3827 5.78224 9.5 5.39556 9.5 5C9.5 4.46957 9.28929 3.96086 8.91421 3.58579C8.53914 3.21072 8.03043 3 7.5 3ZM25.5 9C24.7089 9 23.9355 8.76541 23.2777 8.32588C22.6199 7.88635 22.1072 7.26164 21.8045 6.53074C21.5017 5.79983 21.4225 4.99556 21.5769 4.21964C21.7312 3.44372 22.1122 2.73098 22.6716 2.17157C23.231 1.61216 23.9437 1.2312 24.7196 1.07686C25.4956 0.92252 26.2998 1.00173 27.0307 1.30448C27.7616 1.60723 28.3864 2.11992 28.8259 2.77772C29.2654 3.43552 29.5 4.20888 29.5 5C29.4987 6.06046 29.0768 7.07711 28.327 7.82697C27.5771 8.57683 26.5605 8.99868 25.5 9ZM25.5 3C25.1044 3 24.7178 3.1173 24.3889 3.33706C24.06 3.55683 23.8036 3.86918 23.6522 4.23463C23.5009 4.60009 23.4613 5.00222 23.5384 5.39018C23.6156 5.77814 23.8061 6.13451 24.0858 6.41422C24.3655 6.69392 24.7219 6.8844 25.1098 6.96157C25.4978 7.03874 25.8999 6.99914 26.2654 6.84776C26.6308 6.69639 26.9432 6.44004 27.1629 6.11114C27.3827 5.78224 27.5 5.39556 27.5 5C27.5 4.46957 27.2893 3.96086 26.9142 3.58579C26.5391 3.21072 26.0304 3 25.5 3Z" fill="#1A1F4C"/>
<path d="M19 15C18.3078 15 17.6311 14.7947 17.0555 14.4101C16.4799 14.0256 16.0313 13.4789 15.7664 12.8394C15.5015 12.1999 15.4322 11.4961 15.5673 10.8172C15.7023 10.1383 16.0356 9.51461 16.5251 9.02513C17.0146 8.53564 17.6383 8.2023 18.3172 8.06725C18.9961 7.9322 19.6999 8.00152 20.3394 8.26642C20.9789 8.53133 21.5256 8.97993 21.9101 9.55551C22.2947 10.1311 22.5 10.8078 22.5 11.5C22.4989 12.4279 22.1299 13.3176 21.4737 13.9737C20.8176 14.6299 19.9279 14.9989 19 15ZM19 10C18.7033 10 18.4133 10.088 18.1666 10.2528C17.92 10.4176 17.7277 10.6519 17.6142 10.926C17.5007 11.2001 17.4709 11.5017 17.5288 11.7926C17.5867 12.0836 17.7296 12.3509 17.9393 12.5607C18.1491 12.7704 18.4164 12.9133 18.7074 12.9712C18.9983 13.0291 19.2999 12.9994 19.574 12.8858C19.8481 12.7723 20.0824 12.58 20.2472 12.3334C20.412 12.0867 20.5 11.7967 20.5 11.5C20.5 11.1022 20.342 10.7206 20.0607 10.4393C19.7794 10.158 19.3978 10 19 10Z" fill="#1A1F4C"/>
</svg>
