<svg width="33" height="32" viewBox="0 0 33 32" fill="none" xmlns="http://www.w3.org/2000/svg">
<path d="M11.166 8V16" stroke="#1A1F4C" stroke-width="2" stroke-linecap="round" stroke-linejoin="round"/>
<path d="M20.5 8V16" stroke="#1A1F4C" stroke-width="2" stroke-linecap="round" stroke-linejoin="round"/>
<path d="M3.16602 16H29.2993" stroke="#1A1F4C" stroke-width="2" stroke-linecap="round" stroke-linejoin="round"/>
<path d="M24.4993 24H28.4993C28.4993 24 29.166 21.7333 29.566 20.2667C29.6993 19.7333 29.8327 19.2 29.8327 18.6667C29.8327 18.1333 29.6993 17.6 29.566 17.0667L27.6993 10.4C27.2993 9.06667 25.966 8 24.4993 8H5.83268C5.12544 8 4.44716 8.28095 3.94706 8.78105C3.44697 9.28115 3.16602 9.95942 3.16602 10.6667V24H7.16602" stroke="#1A1F4C" stroke-width="2" stroke-linecap="round" stroke-linejoin="round"/>
<path d="M9.83268 26.6673C11.3054 26.6673 12.4993 25.4734 12.4993 24.0007C12.4993 22.5279 11.3054 21.334 9.83268 21.334C8.35992 21.334 7.16602 22.5279 7.16602 24.0007C7.16602 25.4734 8.35992 26.6673 9.83268 26.6673Z" stroke="#1A1F4C" stroke-width="2" stroke-linecap="round" stroke-linejoin="round"/>
<path d="M12.5 24H19.1667" stroke="#1A1F4C" stroke-width="2" stroke-linecap="round" stroke-linejoin="round"/>
<path d="M21.8327 26.6673C23.3054 26.6673 24.4993 25.4734 24.4993 24.0007C24.4993 22.5279 23.3054 21.334 21.8327 21.334C20.3599 21.334 19.166 22.5279 19.166 24.0007C19.166 25.4734 20.3599 26.6673 21.8327 26.6673Z" stroke="#1A1F4C" stroke-width="2" stroke-linecap="round" stroke-linejoin="round"/>
</svg>
