<svg width="32" height="32" viewBox="0 0 32 32" fill="none" xmlns="http://www.w3.org/2000/svg">
<path d="M14.6667 7.99935C16.1394 7.99935 17.3333 6.80544 17.3333 5.33268C17.3333 3.85992 16.1394 2.66602 14.6667 2.66602C13.1939 2.66602 12 3.85992 12 5.33268C12 6.80544 13.1939 7.99935 14.6667 7.99935Z" stroke="#1A1F4C" stroke-width="2" stroke-linecap="round" stroke-linejoin="round"/>
<path d="M24.0007 13.3333C25.4734 13.3333 26.6673 12.1394 26.6673 10.6667C26.6673 9.19391 25.4734 8 24.0007 8C22.5279 8 21.334 9.19391 21.334 10.6667C21.334 12.1394 22.5279 13.3333 24.0007 13.3333Z" stroke="#1A1F4C" stroke-width="2" stroke-linecap="round" stroke-linejoin="round"/>
<path d="M26.6667 23.9993C28.1394 23.9993 29.3333 22.8054 29.3333 21.3327C29.3333 19.8599 28.1394 18.666 26.6667 18.666C25.1939 18.666 24 19.8599 24 21.3327C24 22.8054 25.1939 23.9993 26.6667 23.9993Z" stroke="#1A1F4C" stroke-width="2" stroke-linecap="round" stroke-linejoin="round"/>
<path d="M12.001 13.334C12.8764 13.334 13.7434 13.5064 14.5522 13.8415C15.361 14.1765 16.096 14.6675 16.715 15.2866C17.3341 15.9057 17.8251 16.6406 18.1602 17.4494C18.4952 18.2583 18.6676 19.1252 18.6676 20.0007V24.6673C18.6673 25.7826 18.2675 26.8609 17.5407 27.7068C16.814 28.5528 15.8082 29.1105 14.7058 29.2789C13.6033 29.4474 12.4769 29.2154 11.5307 28.625C10.5845 28.0347 9.88099 27.1249 9.54763 26.0607C8.97874 24.2251 7.77874 23.0229 5.94763 22.454C4.88388 22.1208 3.97452 21.4179 3.38412 20.4723C2.79371 19.5268 2.56125 18.4012 2.72882 17.2992C2.89638 16.1971 3.45289 15.1914 4.29764 14.4641C5.1424 13.7368 6.21959 13.3359 7.3343 13.334H12.001Z" stroke="#1A1F4C" stroke-width="2" stroke-linecap="round" stroke-linejoin="round"/>
</svg>
