<svg width="33" height="32" viewBox="0 0 33 32" fill="none" xmlns="http://www.w3.org/2000/svg">
<path d="M9.83398 26.666H23.1673" stroke="#1A1F4C" stroke-width="2" stroke-linecap="round" stroke-linejoin="round"/>
<path d="M13.834 26.6673C21.1673 23.334 14.9007 18.134 17.834 13.334" stroke="#1A1F4C" stroke-width="2" stroke-linecap="round" stroke-linejoin="round"/>
<path d="M13.1673 12.5328C14.634 13.5995 15.5673 15.4661 16.234 17.4661C13.5673 17.9995 11.5673 17.9995 9.83398 17.0661C8.23398 16.2661 6.76732 14.5328 5.83398 11.4661C9.56732 10.7995 11.7007 11.4661 13.1673 12.5328Z" stroke="#1A1F4C" stroke-width="2" stroke-linecap="round" stroke-linejoin="round"/>
<path d="M19.2997 8.00065C18.2832 9.58939 17.7718 11.4488 17.833 13.334C20.3664 13.2007 22.233 12.534 23.5664 11.4673C24.8997 10.134 25.6997 8.40065 25.833 5.33398C22.233 5.46732 20.4997 6.66732 19.2997 8.00065Z" stroke="#1A1F4C" stroke-width="2" stroke-linecap="round" stroke-linejoin="round"/>
</svg>
