<svg width="161" height="111" viewBox="0 0 161 111" fill="none" xmlns="http://www.w3.org/2000/svg">
<g opacity="0.8">
<path d="M80.687 110.913C80.0485 110.913 79.5303 110.395 79.5303 109.757V52.8516C79.5303 52.213 80.0485 51.6948 80.687 51.6948C81.3255 51.6948 81.8437 52.213 81.8437 52.8516V109.757C81.8437 110.395 81.3255 110.913 80.687 110.913Z" fill="#4757EA"/>
<path d="M66.0903 110.913C65.4518 110.913 64.9336 110.395 64.9336 109.756V68.2681C64.9336 67.6295 65.4518 67.1113 66.0903 67.1113C66.7288 67.1113 67.2471 67.6295 67.2471 68.2681V109.756C67.2471 110.395 66.7288 110.913 66.0903 110.913Z" fill="#4757EA"/>
<path d="M65.8018 54.0112H109.023C109.662 54.0112 110.18 53.493 110.18 52.8545C110.18 52.216 109.662 51.6978 109.023 51.6978H66.2259C66.1071 52.4782 65.9745 53.2509 65.8018 54.0112Z" fill="#4757EA"/>
<path d="M124.935 64.0903C124.296 64.0903 123.778 64.6085 123.778 65.2471V108.601H23.0068V77.2725C22.2218 76.9856 21.4491 76.6771 20.6934 76.3332V109.76C20.6934 110.398 21.2116 110.916 21.8501 110.916H124.935C125.574 110.916 126.092 110.398 126.092 109.76V65.2486C126.092 64.6085 125.574 64.0903 124.935 64.0903Z" fill="#4757EA"/>
<path d="M34.1439 80.4319C15.593 80.4319 0.5 65.3404 0.5 46.7895C0.5 28.2385 15.593 13.1455 34.1439 13.1455C52.6949 13.1455 67.7879 28.2385 67.7879 46.7895C67.7894 65.3404 52.6964 80.4319 34.1439 80.4319ZM34.1439 15.4574C16.8685 15.4574 2.81347 29.5125 2.81347 46.7879C2.81347 64.0633 16.8685 78.1169 34.1439 78.1169C51.4194 78.1169 65.4744 64.0633 65.4744 46.7879C65.476 29.5125 51.4209 15.4574 34.1439 15.4574Z" fill="#4757EA"/>
<path d="M8.16987 52.1906C7.6131 52.1906 7.12108 51.7865 7.03008 51.2189C6.79411 49.7645 6.67383 48.2731 6.67383 46.7894C6.67383 39.4511 9.53174 32.5539 14.7201 27.3656C19.9069 22.1772 26.8056 19.3193 34.1439 19.3193C34.7824 19.3193 35.3007 19.8376 35.3007 20.4761C35.3007 21.1146 34.7824 21.6328 34.1439 21.6328C27.4241 21.6328 21.1068 24.2486 16.3565 29.0004C11.6046 33.7507 8.98885 40.068 8.98885 46.7879C8.98885 48.1482 9.09835 49.5147 9.31427 50.8472C9.41606 51.4781 8.98885 52.0718 8.35805 52.1736C8.29481 52.186 8.23156 52.1906 8.16987 52.1906Z" fill="#4757EA"/>
<path d="M15.535 66.5505C15.2389 66.5505 14.9428 66.4379 14.7176 66.2112C12.9239 64.419 11.3877 62.3878 10.1523 60.1792C9.83924 59.6224 10.0398 58.9176 10.5966 58.6045C11.1549 58.2914 11.8582 58.4919 12.1712 59.0487C13.3033 61.0737 14.7114 62.9322 16.354 64.5748C16.8059 65.0267 16.8059 65.7577 16.354 66.2096C16.1273 66.4379 15.8311 66.5505 15.535 66.5505Z" fill="#4757EA"/>
<path d="M33.191 29.805C33.4903 28.8837 34.7937 28.8837 35.0931 29.805L38.4612 40.1711C38.595 40.5831 38.979 40.8621 39.4122 40.8621H50.3108C51.2795 40.8621 51.6823 42.1017 50.8985 42.6711L42.082 49.0766C41.7315 49.3312 41.5848 49.7826 41.7187 50.1946L45.0868 60.5606C45.3861 61.482 44.3317 62.2481 43.5479 61.6787L34.7298 55.2717C34.3793 55.0171 33.9047 55.0171 33.5542 55.2718L24.7378 61.6783C23.9541 62.2478 22.8995 61.4817 23.1989 60.5603L26.5668 50.1947C26.7007 49.7826 26.554 49.3312 26.2035 49.0766L17.3858 42.6711C16.6021 42.1017 17.0048 40.8621 17.9736 40.8621H28.8718C29.3051 40.8621 29.689 40.5831 29.8229 40.1711L33.191 29.805Z" fill="#A3C0FE"/>
<path d="M112.39 36.0048C102.521 36.0048 82.9244 32.1968 78.2173 22.7132C76.2663 18.7803 77.0991 14.4464 80.6958 9.82869C84.2909 5.21101 88.2885 3.34482 92.5793 4.26867C103.087 6.54203 111.681 25.1299 113.948 34.5766C114.03 34.919 113.953 35.2799 113.735 35.5575C113.519 35.8351 113.188 35.9986 112.836 36.0032C112.689 36.0032 112.54 36.0048 112.39 36.0048ZM90.5249 6.35849C87.7379 6.35849 85.0528 7.99797 82.5203 11.2507C79.5174 15.1065 78.7663 18.6168 80.2886 21.686C84.1567 29.4824 101.474 33.4044 111.32 33.6759C108.642 24.1968 100.596 8.36966 92.0904 6.52815C91.5644 6.41556 91.0431 6.35849 90.5249 6.35849Z" fill="#4757EA"/>
<path d="M157.874 71.0811C157.641 69.2072 156.691 67.5353 155.203 66.3755L144.755 58.2413C144.251 57.8496 143.526 57.9391 143.131 58.4434L143.04 58.3724C142.984 58.4449 142.944 58.5143 142.887 58.5884C129.664 75.5707 115.141 47.7829 111.817 34.843C98.242 34.6378 68.5341 27.3412 81.6144 10.5423C81.8612 10.2246 82.111 9.9547 82.3578 9.66783C82.3439 9.65703 82.3378 9.64007 82.3239 9.62927L71.8763 1.49512C70.388 0.335307 68.5371 -0.182909 66.6586 0.0576919C64.7847 0.290581 63.1144 1.24065 61.953 2.72898L55.426 11.1114C55.0342 11.6158 55.1237 12.3422 55.628 12.7355L148.282 84.8848C148.486 85.0436 148.737 85.1284 148.993 85.1284C149.041 85.1284 149.089 85.1254 149.137 85.1192C149.441 85.0822 149.718 84.9249 149.906 84.6827L156.435 76.2987C157.596 74.8073 158.107 72.955 157.874 71.0811Z" fill="#4757EA"/>
<path d="M135.181 65.6542C134.485 65.6542 133.782 65.5771 133.069 65.4244C122.562 63.151 113.968 44.5631 111.701 35.1164C111.619 34.774 111.697 34.4131 111.913 34.1355C112.129 33.8579 112.459 33.6944 112.813 33.6898C122.543 33.5587 142.653 37.3497 147.433 46.9783C149.384 50.9112 148.549 55.2451 144.954 59.8628C141.955 63.714 138.676 65.6542 135.181 65.6542ZM114.329 36.0156C117.006 45.4946 125.052 61.3218 133.558 63.1633C136.908 63.8852 140.124 62.2981 143.128 58.4408C146.131 54.585 146.882 51.0747 145.36 48.0055C141.492 40.2107 124.175 36.2886 114.329 36.0156Z" fill="#4757EA"/>
<path d="M150.146 45.5016C149.538 45.5016 149.028 45.0266 148.992 44.4128C148.955 43.7758 149.44 43.2268 150.078 43.1897C154.219 42.9445 157.788 39.2229 158.38 34.5297C159.158 28.3697 154.915 23.1829 147.032 20.6535C134.99 16.7962 124.539 24.2378 118.706 29.9166C124.818 27.0695 134.556 24.6126 145.334 29.8611C145.909 30.1402 146.147 30.8327 145.868 31.4065C145.587 31.9802 144.895 32.2193 144.322 31.9401C127.699 23.8461 114.147 35.2345 113.578 35.7219C113.137 36.1013 112.481 36.0936 112.046 35.7018C111.615 35.3101 111.541 34.6577 111.875 34.1811C112.031 33.9606 127.685 12.0181 147.737 18.4526C158.37 21.8611 161.391 29.1439 160.675 34.8212C159.934 40.6943 155.535 45.1855 150.214 45.5016C150.192 45.5016 150.169 45.5016 150.146 45.5016Z" fill="#4757EA"/>
</g>
</svg>
