<svg width="144" height="130" viewBox="0 0 144 130" fill="none" xmlns="http://www.w3.org/2000/svg">
<g opacity="0.8">
<path d="M1.48004 51.7097C1.02994 51.7097 0.625696 51.4043 0.523639 50.9534C0.405881 50.4315 0.739539 49.9148 1.26945 49.7988L4.78394 49.0304C5.76408 48.8161 6.43377 47.9087 6.3497 46.909L6.05433 43.3962C6.01377 42.9155 6.34082 42.4774 6.8197 42.3731L10.335 41.6046C11.3154 41.3903 11.9852 40.4827 11.9008 39.4827L11.6047 35.9704C11.5641 35.4885 11.8899 35.0517 12.3688 34.946L15.8896 34.1743C16.8693 33.9596 17.5384 33.0526 17.4544 32.0532L17.1589 28.5382C17.1183 28.0575 17.4441 27.6207 17.923 27.5151L21.4438 26.7434C22.4235 26.5287 23.0927 25.6216 23.0086 24.6223L22.7132 21.1072C22.6726 20.6266 22.9984 20.1898 23.4773 20.0842L26.9986 19.3124C27.978 19.0977 28.6471 18.191 28.5634 17.1918L28.2687 13.6738C28.2281 13.1931 28.5539 12.7563 29.0315 12.6507L32.5622 11.8735C33.5404 11.6581 34.2085 10.7525 34.1254 9.75432L33.8321 6.23123C33.7876 5.69907 34.1894 5.23262 34.7297 5.18881C35.2858 5.13856 35.7437 5.54058 35.7869 6.07274L36.2959 12.1778C36.3364 12.6584 36.0106 13.0952 35.533 13.2009L32.0045 13.9778C31.026 14.1932 30.3579 15.0995 30.4415 16.098L30.7364 19.6177C30.777 20.0983 30.4498 20.5351 29.9722 20.6408L26.4515 21.4125C25.4718 21.6272 24.8027 22.5342 24.8867 23.5336L25.1822 27.0486C25.2227 27.5293 24.8969 27.9661 24.418 28.0717L20.8972 28.8434C19.9176 29.0581 19.2484 29.9651 19.3324 30.9645L19.6279 34.4796C19.6684 34.9602 19.3426 35.397 18.8638 35.5027L15.3434 36.2742C14.3636 36.489 13.6944 37.3963 13.7787 38.3959L14.075 41.9092C14.1155 42.3911 13.7884 42.8279 13.3095 42.9336L9.79382 43.7021C8.81364 43.9164 8.14391 44.8237 8.22796 45.8235L8.52327 49.3363C8.56383 49.8169 8.23675 50.2537 7.75917 50.3593L1.69462 51.6852C1.62135 51.702 1.54939 51.7097 1.48004 51.7097Z" fill="#4757EA"/>
<path d="M112.653 121.481C113.632 121.266 114.3 120.359 114.216 119.361L113.997 116.747C113.913 115.748 114.582 114.841 115.562 114.626L118.206 114.047C119.186 113.832 119.855 112.925 119.771 111.925L119.551 109.318C119.467 108.319 120.136 107.411 121.116 107.196L123.76 106.617C124.74 106.402 125.409 105.495 125.325 104.495L125.105 101.887C125.021 100.888 125.69 99.9803 126.67 99.7655L129.314 99.1861C130.294 98.9714 130.963 98.064 130.879 97.0644L130.66 94.4585C130.575 93.4585 131.245 92.5509 132.225 92.3366L134.865 91.7596C135.845 91.5453 136.515 90.6377 136.431 89.6378L136.211 87.0298C136.127 86.0315 136.796 85.1255 137.774 84.9117C139.459 84.5437 139.916 82.357 138.52 81.3449L118.383 66.7473C114.245 63.7463 108.418 64.6186 105.372 68.6942L83.078 98.521C80.0307 102.597 80.9165 108.334 85.0563 111.334L105.272 125.989C106.657 126.993 108.58 125.895 108.437 124.19C108.354 123.192 109.022 122.28 110 122.065L112.653 121.481Z" fill="#4757EA"/>
<path d="M108.803 129.513C108.598 129.513 108.392 129.45 108.222 129.325L84.477 112.111C82.2645 110.507 80.8173 108.15 80.4039 105.475C79.9917 102.8 80.6603 100.127 82.2906 97.9477L104.584 68.1222C106.214 65.9433 108.607 64.5182 111.323 64.1111C114.041 63.7052 116.753 64.3636 118.967 65.9691L142.712 83.1825C143.022 83.4067 143.172 83.7894 143.09 84.1605C143.011 84.5303 142.719 84.8228 142.343 84.904L138.829 85.6724C137.849 85.8867 137.179 86.7941 137.263 87.7938L137.558 91.3067C137.599 91.7873 137.272 92.2254 136.793 92.3297L133.278 93.0982C132.297 93.3125 131.628 94.2201 131.712 95.2201L132.008 98.7311C132.049 99.213 131.723 99.6499 131.244 99.7555L127.723 100.527C126.743 100.742 126.074 101.649 126.158 102.648L126.454 106.165C126.494 106.645 126.169 107.082 125.69 107.188L122.169 107.959C121.189 108.174 120.52 109.081 120.605 110.081L120.901 113.594C120.941 114.076 120.616 114.513 120.137 114.619L116.615 115.39C115.635 115.604 114.966 116.511 115.049 117.51L115.344 121.029C115.385 121.51 115.059 121.946 114.58 122.052L111.051 122.828C110.073 123.043 109.404 123.949 109.488 124.948L109.782 128.472C109.813 128.849 109.618 129.21 109.282 129.395C109.133 129.471 108.968 129.513 108.803 129.513ZM112.885 65.9253C112.465 65.9253 112.04 65.9549 111.618 66.0194C109.418 66.3479 107.482 67.4999 106.164 69.2652L83.8699 99.0906C82.5511 100.855 82.008 103.018 82.343 105.181C82.6766 107.347 83.8464 109.255 85.6389 110.553L104.406 124.158C105.678 125.08 107.446 124.083 107.316 122.517C107.275 122.037 107.601 121.6 108.08 121.494L111.608 120.718C112.586 120.503 113.255 119.597 113.171 118.598L112.876 115.077C112.836 114.597 113.163 114.16 113.64 114.054L117.16 113.284C118.14 113.069 118.81 112.162 118.726 111.162L118.429 107.649C118.389 107.167 118.714 106.73 119.193 106.625L122.714 105.853C123.694 105.638 124.363 104.731 124.279 103.732L123.984 100.216C123.943 99.7349 124.269 99.2981 124.748 99.1924L128.268 98.4209C129.248 98.2061 129.917 97.2987 129.833 96.2991L129.536 92.7872C129.496 92.3053 129.823 91.8685 130.302 91.7628L133.818 90.9943C134.798 90.78 135.468 89.8727 135.384 88.8729L135.088 85.3588C135.048 84.8782 135.375 84.4401 135.854 84.3357C137.384 84.0011 137.799 82.0148 136.531 81.0955L117.803 67.5179C116.358 66.4755 114.648 65.9253 112.885 65.9253Z" fill="#4757EA"/>
<path d="M72.9733 92.8222C72.7718 92.8222 72.5677 92.7603 72.3936 92.634L20.7083 55.1663C20.2713 54.8506 20.1784 54.245 20.5003 53.8159C20.8208 53.3856 21.4345 53.2954 21.8715 53.6111L73.5569 91.0788C73.9939 91.3945 74.0868 92.0001 73.7649 92.4292C73.5726 92.6856 73.2755 92.8222 72.9733 92.8222Z" fill="#4757EA"/>
<path d="M76.8777 87.6018C76.6762 87.6018 76.4721 87.5399 76.2981 87.4136L55.939 72.6562C55.502 72.3392 55.4092 71.7336 55.7297 71.3045C56.0503 70.8741 56.6665 70.7839 57.1022 71.0983L77.4613 85.8558C77.8983 86.1728 77.9912 86.7784 77.6706 87.2075C77.477 87.4665 77.1787 87.6018 76.8777 87.6018Z" fill="#4757EA"/>
<path d="M47.4756 16.5346C47.77 15.9509 48.0854 15.3801 48.419 14.8208L35.391 5.37725C34.9553 5.06027 34.3404 5.15175 34.0198 5.58212C33.6979 6.0112 33.7908 6.6168 34.2278 6.93249L47.4756 16.5346Z" fill="#4757EA"/>
<path d="M108.056 61.734C107.643 59.059 106.196 56.7023 103.984 55.0981L94.0345 47.8862C93.5896 48.3681 93.1226 48.8281 92.6437 49.2778L102.821 56.6546C104.611 57.9522 105.782 59.8579 106.115 62.0239C106.45 64.1886 105.907 66.3521 104.59 68.1174L82.2941 97.9428C79.5752 101.583 74.3559 102.369 70.6544 99.6849L2.06288 49.962C1.62717 49.6476 1.01094 49.7378 0.691684 50.1682C0.369812 50.5973 0.462705 51.2029 0.899719 51.5186L69.4911 101.243C71.3229 102.57 73.4583 103.21 75.5753 103.21C78.7378 103.21 81.861 101.783 83.8733 99.0883L106.169 69.2628C107.799 67.0827 108.468 64.409 108.056 61.734Z" fill="#4757EA"/>
<path d="M72.976 58.0184C56.7346 58.0184 43.5195 45.0043 43.5195 29.0086C43.5195 13.0141 56.7346 0 72.976 0C89.2188 0 102.434 13.0141 102.434 29.0086C102.434 45.0043 89.2188 58.0184 72.976 58.0184ZM72.976 1.93408C57.8154 1.93408 45.4822 14.0797 45.4822 29.0098C45.4822 43.94 57.8154 56.0869 72.976 56.0869C88.1367 56.0869 100.471 43.94 100.471 29.0098C100.471 14.0797 88.1367 1.93408 72.976 1.93408Z" fill="#4757EA"/>
<path d="M72.0242 12.48C72.3263 11.5644 73.6215 11.5645 73.9235 12.4801L77.1896 22.3812C77.3248 22.7911 77.7077 23.0679 78.1393 23.0679H88.6782C89.6506 23.0679 90.0509 24.3153 89.2601 24.8812L80.7607 30.9625C80.4049 31.2171 80.2559 31.6735 80.393 32.089L83.6448 41.9463C83.9479 42.865 82.8999 43.6358 82.1132 43.0728L73.5559 36.9494C73.2079 36.7004 72.7401 36.7004 72.3921 36.9494L63.8334 43.0731C63.0467 43.636 61.9988 42.8652 62.3018 41.9466L65.5538 32.089C65.6909 31.6735 65.5419 31.2171 65.186 30.9625L56.6866 24.8812C55.8958 24.3154 56.2961 23.0679 57.2685 23.0679H67.8075C68.2391 23.0679 68.622 22.7911 68.7572 22.3813L72.0242 12.48Z" fill="#A3C0FE"/>
<path d="M72.9735 53.6167C72.4318 53.6167 71.9922 53.1838 71.9922 52.6504V43.5894C71.9922 43.056 72.4318 42.623 72.9735 42.623C73.5152 42.623 73.9548 43.056 73.9548 43.5894V52.6504C73.9548 53.1838 73.5152 53.6167 72.9735 53.6167Z" fill="#4757EA"/>
<path d="M95.7979 37.2911C95.6972 37.2911 95.5964 37.2756 95.4956 37.2434L86.7449 34.4435C86.2281 34.2785 85.9481 33.7335 86.1143 33.2271C86.2817 32.7181 86.8352 32.4424 87.3494 32.6073L96.1001 35.4073C96.6156 35.5722 96.897 36.1173 96.7295 36.6237C96.596 37.0321 96.2114 37.2911 95.7979 37.2911Z" fill="#4757EA"/>
<path d="M81.6711 18.2039C81.4722 18.2039 81.2694 18.1434 81.0967 18.0184C80.6571 17.7053 80.5602 17.1009 80.8795 16.6693L86.2872 9.34016C86.6051 8.9085 87.2188 8.81186 87.6571 9.12626C88.0967 9.43937 88.1936 10.0437 87.8743 10.4753L82.4666 17.8058C82.2743 18.0648 81.9746 18.2039 81.6711 18.2039Z" fill="#4757EA"/>
<path d="M64.2806 18.2058C63.9771 18.2058 63.6775 18.0679 63.4864 17.8063L58.0787 10.4759C57.7595 10.0443 57.8562 9.43993 58.2959 9.12682C58.7342 8.81113 59.3478 8.90906 59.6658 9.34072L65.0735 16.6698C65.3927 17.1015 65.296 17.7058 64.8563 18.0189C64.681 18.1452 64.4795 18.2058 64.2806 18.2058Z" fill="#4757EA"/>
<path d="M50.157 37.2892C49.7435 37.2892 49.3589 37.0302 49.2241 36.6205C49.0567 36.1128 49.338 35.5691 49.8548 35.4041L58.6042 32.6042C59.1184 32.4341 59.6732 32.7175 59.8393 33.2239C60.0068 33.7316 59.7255 34.2754 59.21 34.4403L50.4606 37.2403C50.3599 37.2738 50.2564 37.2892 50.157 37.2892Z" fill="#4757EA"/>
</g>
</svg>
