<svg width="960" height="427" viewBox="0 0 960 427" fill="none" xmlns="http://www.w3.org/2000/svg">
<g clip-path="url(#clip0_2573_35978)">
<path d="M0 0H1440V327C1440 382.228 1395.23 427 1340 427H100C44.7715 427 0 382.228 0 327V0Z" fill="#4757EA"/>
<path d="M334.22 52.5653C340.876 61.4042 341.783 73.9826 336.943 90.3006C332.103 106.619 323.935 121.237 312.439 134.155L275.91 175.205L312.212 352.663C312.968 355.893 312.061 358.697 309.489 361.077L280.448 385.554C279.389 386.574 277.952 387.084 276.137 387.084C275.532 387.084 275.002 386.999 274.548 386.829C272.28 386.319 270.691 384.959 269.784 382.749L206.482 253.225L147.717 319.262L159.742 368.726C160.499 371.616 159.894 374.25 157.927 376.63L136.146 401.107C134.785 402.637 133.045 403.402 130.927 403.402H130.474C128.205 403.062 126.39 401.957 125.028 400.087L82.1463 335.835L24.9702 287.646C23.3063 286.456 22.3231 284.502 22.0206 281.782C21.8694 279.572 22.55 277.447 24.0626 275.408L45.844 250.676C47.2053 249.146 48.9448 248.381 51.0625 248.381C51.97 248.381 52.5751 248.466 52.8776 248.636L96.8941 262.149L155.658 196.113L40.3987 124.976C38.281 123.617 36.9953 121.577 36.5415 118.857C36.239 116.137 36.9197 113.843 38.5835 111.973L67.6254 79.337C69.743 77.1273 72.0119 76.4473 74.4321 77.2972L225.313 117.837L261.616 77.0423C273.111 64.1239 286.12 54.945 300.641 49.5057C315.162 44.0663 326.355 45.0862 334.22 52.5653Z" fill="#5F79F5" fill-opacity="0.6"/>
</g>
<defs>
<clipPath id="clip0_2573_35978">
<path d="M0 0H1440V327C1440 382.228 1395.23 427 1340 427H100C44.7715 427 0 382.228 0 327V0Z" fill="white"/>
</clipPath>
</defs>
</svg>
