<svg width="122" height="140" viewBox="0 0 122 140" fill="none" xmlns="http://www.w3.org/2000/svg">
<g opacity="0.8">
<path d="M92.5536 139.082H29.4464C18.9984 139.082 9.64193 133.679 4.41797 124.632C-0.805989 115.585 -0.805989 104.779 4.41797 95.7306L45.0638 25.333C45.2721 24.9723 45.6562 24.75 46.0729 24.75H75.9287C76.3454 24.75 76.7309 24.9723 76.9377 25.333L117.582 95.7306C122.806 104.779 122.806 115.583 117.582 124.632C112.36 133.679 103.003 139.082 92.5536 139.082ZM46.746 27.0821L6.43761 96.8966C1.63498 105.216 1.63655 115.146 6.43917 123.466C11.2418 131.784 19.8426 136.75 29.4479 136.75H92.5552C102.16 136.75 110.761 131.784 115.564 123.466C120.367 115.146 120.367 105.216 115.564 96.8966L75.2555 27.0821H46.746Z" fill="#4757EA"/>
<path d="M92.5533 132.819H70.0841C69.4404 132.819 68.918 132.297 68.918 131.653C68.918 131.01 69.4404 130.487 70.0841 130.487H92.5533C99.4284 130.487 105.584 126.933 109.021 120.98C112.459 115.027 112.459 107.92 109.021 101.965C108.699 101.409 108.891 100.695 109.447 100.373C110.004 100.053 110.717 100.243 111.039 100.799C114.898 107.485 114.898 115.465 111.039 122.146C107.182 128.83 100.271 132.819 92.5533 132.819Z" fill="#4757EA"/>
<path d="M75.9254 28.374H46.0696C45.6482 28.374 45.2595 28.1455 45.0527 27.7801L34.4789 8.99404C34.2768 8.63334 34.2799 8.19027 34.4882 7.83267C34.6966 7.47664 35.0806 7.25586 35.4941 7.25586H86.4962C86.9113 7.25586 87.2937 7.47664 87.5021 7.83267C87.7104 8.19027 87.715 8.63334 87.5114 8.99404L76.9391 27.7801C76.7338 28.1455 76.3468 28.374 75.9254 28.374ZM46.7521 26.0419H75.2444L84.5045 9.58798H37.4904L46.7521 26.0419Z" fill="#4757EA"/>
<path d="M53.7129 27.2076H68.3011L73.4675 1.16406H48.5464L53.7129 27.2076Z" fill="#4757EA"/>
<path d="M68.3012 28.3742H53.7115C53.1549 28.3742 52.676 27.9809 52.5672 27.4352L47.4007 1.39153C47.3338 1.04949 47.4225 0.695 47.6433 0.426028C47.8656 0.155502 48.1952 0 48.545 0H73.4676C73.8174 0 74.1471 0.157057 74.3694 0.426028C74.5917 0.695 74.6804 1.04949 74.6119 1.39153L69.4455 27.4352C69.3367 27.9809 68.8578 28.3742 68.3012 28.3742ZM54.6692 26.0421H67.3435L72.0466 2.33061H49.9645L54.6692 26.0421Z" fill="#4757EA"/>
<path d="M60.0382 61.719C60.3376 60.7977 61.641 60.7977 61.9403 61.719L66.4426 75.5733C66.5765 75.9853 66.9604 76.2643 67.3936 76.2643H81.9607C82.9294 76.2643 83.3322 77.5038 82.5485 78.0733L70.7639 86.6365C70.4135 86.8911 70.2668 87.3425 70.4007 87.7545L74.9017 101.609C75.201 102.53 74.1465 103.296 73.3628 102.727L61.577 94.1636C61.2265 93.9089 60.7519 93.909 60.4014 94.1636L48.6172 102.727C47.8336 103.296 46.779 102.53 47.0783 101.609L51.5793 87.7545C51.7131 87.3425 51.5665 86.8911 51.216 86.6365L39.4314 78.0733C38.6477 77.5038 39.0505 76.2643 40.0192 76.2643H54.5862C55.0195 76.2643 55.4034 75.9853 55.5373 75.5733L60.0382 61.719Z" fill="#A3C0FE"/>
<path d="M60.9996 115.812C60.3559 115.812 59.8335 115.29 59.8335 114.646V102.889C59.8335 102.246 60.3559 101.723 60.9996 101.723C61.6432 101.723 62.1656 102.246 62.1656 102.889V114.646C62.1656 115.29 61.6432 115.812 60.9996 115.812Z" fill="#4757EA"/>
<path d="M90.1504 94.6309C90.0307 94.6309 89.9094 94.6123 89.7897 94.5734L78.6095 90.94C77.9969 90.741 77.6627 90.0833 77.8617 89.4723C78.0607 88.8582 78.7184 88.5208 79.3309 88.7244L90.5111 92.3579C91.1237 92.5569 91.458 93.2146 91.259 93.8256C91.1004 94.3184 90.6433 94.6309 90.1504 94.6309Z" fill="#4757EA"/>
<path d="M72.0971 69.8646C71.8593 69.8646 71.6198 69.7915 71.413 69.6407C70.8922 69.2629 70.7772 68.5337 71.155 68.0129L78.0643 58.5041C78.4436 57.9817 79.1713 57.8666 79.6937 58.2459C80.2146 58.6238 80.3295 59.3529 79.9517 59.8738L73.0425 69.3826C72.8139 69.6982 72.4578 69.8646 72.0971 69.8646Z" fill="#4757EA"/>
<path d="M49.8889 69.8642C49.5282 69.8642 49.1737 69.6963 48.9452 69.3822L42.0359 59.8734C41.6581 59.3526 41.7731 58.6234 42.2939 58.2456C42.8163 57.8693 43.544 57.9813 43.9233 58.5037L50.8326 68.0125C51.2104 68.5334 51.0954 69.2625 50.5746 69.6404C50.3662 69.7927 50.1268 69.8642 49.8889 69.8642Z" fill="#4757EA"/>
<path d="M31.8369 94.628C31.3456 94.628 30.8885 94.3155 30.7284 93.8211C30.5294 93.2101 30.8637 92.5524 31.4778 92.3534L42.658 88.72C43.2721 88.5148 43.9282 88.8552 44.1272 89.4678C44.3262 90.0804 43.992 90.7365 43.3778 90.9355L32.1976 94.569C32.0779 94.6094 31.9566 94.628 31.8369 94.628Z" fill="#4757EA"/>
<path d="M60.767 132.82H50.3658C49.7221 132.82 49.1997 132.298 49.1997 131.654C49.1997 131.011 49.7221 130.488 50.3658 130.488H60.767C61.4107 130.488 61.9331 131.011 61.9331 131.654C61.9331 132.298 61.4107 132.82 60.767 132.82Z" fill="#4757EA"/>
</g>
</svg>
