<svg width="524.836426" height="524.836426" viewBox="0 0 524.836 524.836" fill="none" xmlns="http://www.w3.org/2000/svg" xmlns:xlink="http://www.w3.org/1999/xlink">
	<desc>
			Created with Pixso.
	</desc>
	<defs/>
	<path id="Vector" d="M515.29 9.53C526.28 22.52 527.78 40.99 519.79 64.96C511.8 88.93 498.32 110.4 479.34 129.37L419.06 189.66L478.97 450.31C480.22 455.05 478.72 459.17 474.48 462.67L426.54 498.62C424.8 500.12 422.43 500.86 419.43 500.86C418.43 500.86 417.56 500.74 416.81 500.49C413.06 499.74 410.44 497.74 408.95 494.5L304.47 304.26L207.48 401.25L227.33 473.9C228.58 478.15 227.58 482.02 224.33 485.51L188.39 521.46C186.14 523.71 183.27 524.83 179.77 524.83L179.02 524.83C175.28 524.33 172.28 522.71 170.04 519.96L99.26 425.59L4.9 354.81C2.15 353.07 0.53 350.2 0.03 346.2C-0.22 342.95 0.9 339.83 3.4 336.84L39.35 300.51C41.59 298.27 44.47 297.14 47.96 297.14C49.46 297.14 50.46 297.27 50.96 297.52L123.6 317.37L220.59 220.37L30.36 115.89C26.87 113.89 24.74 110.9 24 106.9C23.5 102.91 24.62 99.54 27.37 96.79L75.3 48.86C78.79 45.61 82.54 44.61 86.53 45.86L335.55 105.4L395.46 45.49C414.44 26.51 435.91 13.03 459.87 5.04C483.84 -2.95 502.31 -1.45 515.29 9.53Z" fill="#5F79F5" fill-opacity="0.600000" fill-rule="evenodd"/>
</svg>
